<svg width="600" height="600" viewBox="0 0 600 600" fill="none" xmlns="http://www.w3.org/2000/svg">
<circle cx="299.5" cy="299.5" r="283.5" stroke="#8B1A1A" stroke-width="24"/>
<path d="M421.485 463.142C440.415 482.319 462.86 487.636 481.164 488.009C490.862 488.207 499.341 487.011 505.389 485.763C508.407 485.141 510.806 484.507 512.431 484.038C513.242 483.803 513.86 483.609 514.264 483.478C514.465 483.413 514.614 483.362 514.706 483.331C514.752 483.315 514.785 483.304 514.803 483.297C514.807 483.296 514.811 483.294 514.813 483.293C517.413 482.362 520.275 483.714 521.207 486.313C522.139 488.912 520.787 491.776 518.188 492.708L516.5 488C518.117 492.511 518.182 492.7 518.183 492.708C518.181 492.709 518.178 492.711 518.176 492.711L518.109 492.735C518.069 492.749 518.013 492.768 517.944 492.792C517.805 492.839 517.608 492.906 517.357 492.988C516.855 493.151 516.131 493.377 515.208 493.644C513.362 494.178 510.709 494.875 507.408 495.556C500.816 496.916 491.574 498.224 480.961 498.007C460.955 497.599 435.87 491.752 414.705 470.51C417.083 468.024 419.338 465.572 421.485 463.142ZM172.316 467.064C174.503 469.452 176.798 471.867 179.217 474.319C159.083 492.057 136.12 497.129 117.539 497.507C106.925 497.724 97.6844 496.416 91.0918 495.056C87.7904 494.375 85.1378 493.678 83.292 493.144C82.3688 492.877 81.6452 492.651 81.1426 492.488C80.8913 492.406 80.6947 492.339 80.5557 492.292C80.4865 492.268 80.4311 492.249 80.3906 492.235L80.3242 492.211C80.3219 492.211 80.3185 492.209 80.3174 492.208C80.3178 492.2 80.3834 492.01 82 487.5L80.3125 492.208C77.7135 491.276 76.3616 488.412 77.293 485.813C78.2247 483.214 81.0874 481.862 83.6865 482.793C83.6891 482.794 83.6928 482.796 83.6973 482.797C83.7151 482.804 83.7479 482.815 83.7939 482.831C83.8863 482.862 84.0347 482.912 84.2363 482.978C84.64 483.109 85.2577 483.303 86.0693 483.538C87.6941 484.007 90.0929 484.641 93.1113 485.263C99.1591 486.511 107.638 487.707 117.336 487.509C134.147 487.167 154.451 482.654 172.316 467.064ZM576.931 304.595C578.533 302.35 581.652 301.827 583.899 303.427C586.149 305.029 586.675 308.15 585.073 310.4L581 307.5C585.073 310.4 585.071 310.403 585.068 310.407C585.067 310.408 585.065 310.412 585.063 310.415C585.06 310.42 585.055 310.425 585.051 310.431C585.042 310.443 585.033 310.457 585.021 310.472C584.999 310.503 584.97 310.543 584.937 310.587C584.869 310.677 584.779 310.794 584.667 310.935C584.443 311.218 584.127 311.599 583.719 312.056C582.902 312.971 581.707 314.198 580.104 315.571C576.897 318.319 572.054 321.655 565.357 324.23C551.848 329.426 531.428 331.294 502.693 320.163C501.682 319.771 500.655 319.311 499.611 318.788C500.565 315.633 501.476 312.354 502.347 308.91C503.749 309.715 505.069 310.359 506.306 310.838C533.07 321.207 550.902 319.075 561.768 314.896C567.258 312.784 571.134 310.088 573.599 307.977C574.832 306.921 575.711 306.01 576.26 305.396C576.533 305.09 576.724 304.856 576.835 304.717C576.89 304.649 576.925 304.602 576.94 304.582L576.941 304.581C576.94 304.583 576.937 304.586 576.935 304.589C576.933 304.591 576.931 304.594 576.931 304.595ZM14.6006 302.927C16.8483 301.327 19.9667 301.85 21.5693 304.095C21.5688 304.094 21.5666 304.091 21.5654 304.089C21.5631 304.086 21.5604 304.083 21.5586 304.081L21.5596 304.082C21.5748 304.102 21.6102 304.148 21.665 304.217C21.7755 304.356 21.9665 304.589 22.2402 304.896C22.7887 305.51 23.6682 306.42 24.9014 307.477C27.3658 309.588 31.2415 312.284 36.7324 314.396C47.1685 318.41 64.0292 320.532 89.0596 311.508C89.9371 314.862 90.8536 318.061 91.8135 321.145C65.1693 330.61 46.0173 328.682 33.1426 323.73C26.4463 321.154 21.6029 317.819 18.3955 315.071C16.7932 313.698 15.598 312.471 14.7812 311.556C14.3727 311.099 14.0573 310.718 13.833 310.435C13.721 310.294 13.631 310.177 13.5635 310.087C13.5297 310.042 13.5013 310.003 13.4785 309.972C13.4674 309.957 13.4578 309.943 13.4492 309.931C13.4449 309.925 13.4402 309.92 13.4365 309.915C13.4348 309.912 13.4326 309.908 13.4316 309.907C13.4292 309.903 13.4284 309.899 17.5 307L13.4268 309.9C11.8255 307.65 12.3514 304.529 14.6006 302.927ZM296.103 14.1128C298.526 12.789 301.564 13.68 302.888 16.103L302.101 16.5317L302.103 16.5337C302.826 16.1388 302.885 16.1076 302.89 16.106C302.891 16.1079 302.892 16.1109 302.895 16.1147C302.899 16.1228 302.905 16.1357 302.914 16.1519C302.932 16.1845 302.959 16.234 302.995 16.2993C303.067 16.4304 303.174 16.6271 303.316 16.8862C303.601 17.4052 304.026 18.1769 304.582 19.1851C305.694 21.2019 307.335 24.1655 309.442 27.9458C313.658 35.5069 319.745 46.3357 327.223 59.3989C338.679 79.4123 353.395 104.658 369.647 131.426C367.105 133.131 364.434 135.21 361.684 137.576C345.142 110.357 330.164 84.6696 318.543 64.3677C314.989 58.1588 311.75 52.4513 308.873 47.3579C310.737 56.8733 313.032 68.4744 315.69 81.6665C320.557 105.821 326.635 135.307 333.485 167.098C331.791 169.095 330.125 171.087 328.496 173.054C327.473 174.29 326.434 175.593 325.383 176.946C317.835 142.15 311.153 109.775 305.888 83.6411C302.368 66.1704 299.481 51.4852 297.391 40.728C295.402 51.4937 292.636 66.2927 289.246 83.9409C283.96 111.465 277.158 145.929 269.446 182.849C267.075 179.611 264.708 176.529 262.428 173.775C262.082 173.357 261.731 172.94 261.382 172.52C268.37 138.807 274.544 107.472 279.426 82.0542C281.985 68.7263 284.188 57.0264 285.97 47.4673C283.08 52.7095 279.799 58.626 276.185 65.0894C264.455 86.0623 249.196 112.816 232.342 141.054C229.688 138.626 227.092 136.422 224.592 134.522C241.051 106.907 255.951 80.7788 267.456 60.2085C274.723 47.2161 280.634 36.445 284.727 28.9253C286.773 25.166 288.365 22.2189 289.444 20.2134C289.984 19.211 290.396 18.4433 290.672 17.9272C290.81 17.6696 290.914 17.4736 290.983 17.3433C291.018 17.2785 291.044 17.2292 291.062 17.1968C291.07 17.181 291.077 17.1686 291.081 17.1606C291.083 17.157 291.085 17.1538 291.086 17.1519C291.086 17.1508 291.086 17.1518 291.927 17.5991L291.929 17.5972L291.087 17.1489C291.986 15.4624 293.714 14.5013 295.5 14.4995C295.689 14.3584 295.89 14.229 296.103 14.1128Z" fill="#8B1A1A"/>
<path d="M342.629 346.451C335.262 302.271 295.882 221.431 295.882 221.431C295.882 221.431 313.968 190.606 328.496 173.054C343.025 155.501 360.583 135.976 373.612 129.025C386.642 122.073 395.69 117.89 409.488 117.066C423.285 116.243 431.518 118.27 444.276 123.589C457.034 128.908 472.002 141.79 484.499 158.377C499.8 178.684 504.177 193.742 508.96 218.713C514.879 249.614 511.157 268.386 504.611 299.161C497.378 333.167 487.21 350.791 471.454 381.783C451.522 420.987 440.239 445.462 408.944 476.363C386.011 499.007 373.069 511.695 342.629 524.197C325.742 531.132 295.882 524.197 295.882 524.197C295.882 524.197 325.801 489.057 337.193 460.6C348.586 432.142 349.996 390.631 342.629 346.451Z" stroke="#8B1A1A" stroke-width="12"/>
<path d="M248.295 347.172C255.662 302.992 295.042 222.152 295.042 222.152C295.042 222.152 276.956 191.327 262.428 173.775C247.9 156.223 230.342 136.698 217.312 129.746C204.282 122.794 195.234 118.611 181.437 117.788C167.639 116.964 159.406 118.991 146.649 124.31C133.891 129.629 118.922 142.511 106.425 159.098C91.1245 179.405 86.7476 194.463 81.9643 219.434C76.0452 250.335 79.7672 269.108 86.3128 299.882C93.5459 333.888 103.714 351.512 119.47 382.504C139.402 421.708 150.685 446.183 181.98 477.084C204.913 499.728 217.856 512.416 248.295 524.918C265.182 531.853 295.042 524.918 295.042 524.918C295.042 524.918 265.123 489.778 253.731 461.321C242.339 432.863 240.928 391.352 248.295 347.172Z" stroke="#8B1A1A" stroke-width="12"/>
<mask id="mask0_829_266" style="mask-type:alpha" maskUnits="userSpaceOnUse" x="246" y="225" width="99" height="303">
<path d="M295.505 225.235C298.455 231.921 344.278 336.447 344.278 378.006C344.278 420.948 346.452 415.878 339.385 450.3C332.581 483.446 298.056 524.491 295.505 527.489C292.955 524.491 258.43 483.446 251.625 450.3C244.559 415.878 246.733 420.948 246.733 378.006C246.733 336.447 292.556 231.921 295.505 225.235Z" fill="#E4E3F4"/>
</mask>
<g mask="url(#mask0_829_266)">
<line x1="337.009" y1="343.95" x2="735.105" y2="569.764" stroke="#8B1A1A" stroke-width="2"/>
<line x1="333.062" y1="350.909" x2="731.158" y2="576.723" stroke="#8B1A1A" stroke-width="2"/>
<line x1="329.115" y1="357.867" x2="727.211" y2="583.681" stroke="#8B1A1A" stroke-width="2"/>
<line x1="325.168" y1="364.826" x2="723.264" y2="590.64" stroke="#8B1A1A" stroke-width="2"/>
<line x1="321.221" y1="371.784" x2="719.317" y2="597.598" stroke="#8B1A1A" stroke-width="2"/>
<line x1="317.274" y1="378.742" x2="715.37" y2="604.557" stroke="#8B1A1A" stroke-width="2"/>
<line x1="313.326" y1="385.701" x2="711.422" y2="611.515" stroke="#8B1A1A" stroke-width="2"/>
<line x1="309.379" y1="392.659" x2="707.475" y2="618.474" stroke="#8B1A1A" stroke-width="2"/>
<line x1="305.432" y1="399.618" x2="703.528" y2="625.432" stroke="#8B1A1A" stroke-width="2"/>
<line x1="301.485" y1="406.576" x2="699.581" y2="632.391" stroke="#8B1A1A" stroke-width="2"/>
<line x1="297.538" y1="413.535" x2="695.634" y2="639.349" stroke="#8B1A1A" stroke-width="2"/>
<line x1="293.591" y1="420.493" x2="691.687" y2="646.308" stroke="#8B1A1A" stroke-width="2"/>
<line x1="289.644" y1="427.452" x2="687.74" y2="653.266" stroke="#8B1A1A" stroke-width="2"/>
<line x1="285.697" y1="434.41" x2="683.793" y2="660.225" stroke="#8B1A1A" stroke-width="2"/>
<line x1="281.75" y1="441.369" x2="679.846" y2="667.183" stroke="#8B1A1A" stroke-width="2"/>
<line x1="277.803" y1="448.327" x2="675.899" y2="674.141" stroke="#8B1A1A" stroke-width="2"/>
<line x1="273.855" y1="455.285" x2="671.951" y2="681.1" stroke="#8B1A1A" stroke-width="2"/>
<line x1="269.908" y1="462.244" x2="668.004" y2="688.058" stroke="#8B1A1A" stroke-width="2"/>
<line x1="265.961" y1="469.202" x2="664.057" y2="695.017" stroke="#8B1A1A" stroke-width="2"/>
<line x1="262.014" y1="476.161" x2="660.11" y2="701.975" stroke="#8B1A1A" stroke-width="2"/>
<line x1="258.067" y1="483.119" x2="656.163" y2="708.934" stroke="#8B1A1A" stroke-width="2"/>
<line x1="254.12" y1="490.078" x2="652.216" y2="715.892" stroke="#8B1A1A" stroke-width="2"/>
<line x1="250.173" y1="497.036" x2="648.269" y2="722.851" stroke="#8B1A1A" stroke-width="2"/>
<line x1="94.6442" y1="412.678" x2="313.278" y2="10.5932" stroke="#8B1A1A" stroke-width="2"/>
<line x1="101.672" y1="416.499" x2="320.306" y2="14.415" stroke="#8B1A1A" stroke-width="2"/>
<line x1="108.701" y1="420.321" x2="327.334" y2="18.2363" stroke="#8B1A1A" stroke-width="2"/>
<line x1="115.729" y1="424.142" x2="334.362" y2="22.0581" stroke="#8B1A1A" stroke-width="2"/>
<line x1="122.757" y1="427.964" x2="341.391" y2="25.8793" stroke="#8B1A1A" stroke-width="2"/>
<line x1="129.785" y1="431.785" x2="348.419" y2="29.7011" stroke="#8B1A1A" stroke-width="2"/>
<line x1="136.813" y1="435.607" x2="355.447" y2="33.5229" stroke="#8B1A1A" stroke-width="2"/>
<line x1="143.842" y1="439.429" x2="362.475" y2="37.3442" stroke="#8B1A1A" stroke-width="2"/>
<line x1="150.87" y1="443.25" x2="369.503" y2="41.166" stroke="#8B1A1A" stroke-width="2"/>
<line x1="157.898" y1="447.072" x2="376.532" y2="44.9873" stroke="#8B1A1A" stroke-width="2"/>
<line x1="164.926" y1="450.893" x2="383.56" y2="48.809" stroke="#8B1A1A" stroke-width="2"/>
<line x1="171.954" y1="454.715" x2="390.588" y2="52.6308" stroke="#8B1A1A" stroke-width="2"/>
<line x1="178.982" y1="458.536" x2="397.616" y2="56.4521" stroke="#8B1A1A" stroke-width="2"/>
<line x1="186.011" y1="462.358" x2="404.644" y2="60.2739" stroke="#8B1A1A" stroke-width="2"/>
<line x1="193.039" y1="466.18" x2="411.673" y2="64.0952" stroke="#8B1A1A" stroke-width="2"/>
<line x1="200.067" y1="470.001" x2="418.701" y2="67.9169" stroke="#8B1A1A" stroke-width="2"/>
<line x1="207.095" y1="473.823" x2="425.729" y2="71.7387" stroke="#8B1A1A" stroke-width="2"/>
<line x1="214.123" y1="477.644" x2="432.757" y2="75.56" stroke="#8B1A1A" stroke-width="2"/>
<line x1="221.152" y1="481.466" x2="439.785" y2="79.3818" stroke="#8B1A1A" stroke-width="2"/>
<line x1="228.18" y1="485.288" x2="446.814" y2="83.2036" stroke="#8B1A1A" stroke-width="2"/>
<line x1="235.208" y1="489.109" x2="453.842" y2="87.0249" stroke="#8B1A1A" stroke-width="2"/>
<line x1="242.236" y1="492.931" x2="460.87" y2="90.8466" stroke="#8B1A1A" stroke-width="2"/>
<line x1="249.264" y1="496.752" x2="467.898" y2="94.6679" stroke="#8B1A1A" stroke-width="2"/>
</g>
<mask id="mask1_829_266" style="mask-type:alpha" maskUnits="userSpaceOnUse" x="79" y="116" width="217" height="411">
<path d="M248.295 346.084C255.662 301.904 295.042 221.064 295.042 221.064C295.042 221.064 276.956 190.239 262.428 172.687C247.9 155.135 230.342 135.61 217.312 128.658C204.282 121.706 195.234 117.523 181.437 116.7C167.639 115.876 159.406 117.903 146.649 123.222C133.891 128.542 118.922 141.424 106.425 158.011C91.1245 178.317 86.7476 193.375 81.9643 218.346C76.0452 249.247 79.7672 268.02 86.3128 298.794C93.5459 332.8 103.714 350.424 119.47 381.416C139.402 420.62 150.685 445.095 181.98 475.996C204.913 498.64 217.856 511.328 248.295 523.83C265.182 530.765 295.042 523.83 295.042 523.83C295.042 523.83 265.123 488.69 253.731 460.233C242.339 431.775 240.928 390.264 248.295 346.084Z" fill="#CFCDEE"/>
</mask>
<g mask="url(#mask1_829_266)">
<path d="M627.847 713.247C627.847 713.247 427.245 107.877 197.847 110.704C-31.5503 113.532 -120.117 426.207 -120.117 426.207" stroke="#8B1A1A" stroke-width="10"/>
<path d="M613.235 724.028C613.235 724.028 412.632 118.658 183.234 121.486C-46.1631 124.314 -134.729 436.989 -134.729 436.989" stroke="#8B1A1A" stroke-width="10"/>
<path d="M598.622 734.81C598.622 734.81 398.019 129.44 168.622 132.268C-60.7759 135.096 -149.342 447.771 -149.342 447.771" stroke="#8B1A1A" stroke-width="10"/>
<path d="M584.009 745.592C584.009 745.592 383.406 140.222 154.009 143.05C-75.3888 145.878 -163.955 458.552 -163.955 458.552" stroke="#8B1A1A" stroke-width="10"/>
<path d="M569.396 756.374C569.396 756.374 368.794 151.004 139.396 153.831C-90.0015 156.659 -178.568 469.334 -178.568 469.334" stroke="#8B1A1A" stroke-width="10"/>
<path d="M554.783 767.155C554.783 767.155 354.181 161.785 124.783 164.613C-104.614 167.441 -193.181 480.116 -193.181 480.116" stroke="#8B1A1A" stroke-width="10"/>
<path d="M540.171 777.937C540.171 777.937 339.568 172.567 110.17 175.395C-119.227 178.223 -207.793 490.898 -207.793 490.898" stroke="#8B1A1A" stroke-width="10"/>
<path d="M525.558 788.719C525.558 788.719 324.955 183.349 95.5577 186.177C-133.84 189.005 -222.406 501.679 -222.406 501.679" stroke="#8B1A1A" stroke-width="10"/>
<path d="M510.945 799.501C510.945 799.501 310.342 194.131 80.9449 196.958C-148.453 199.786 -237.019 512.461 -237.019 512.461" stroke="#8B1A1A" stroke-width="10"/>
<path d="M496.332 810.282C496.332 810.282 295.73 204.912 66.332 207.74C-163.066 210.568 -251.632 523.243 -251.632 523.243" stroke="#8B1A1A" stroke-width="10"/>
<path d="M481.719 821.064C481.719 821.064 281.117 215.694 51.7192 218.522C-177.678 221.35 -266.245 534.025 -266.245 534.025" stroke="#8B1A1A" stroke-width="10"/>
<path d="M467.106 831.846C467.106 831.846 266.504 226.476 37.1064 229.304C-192.291 232.131 -280.857 544.806 -280.857 544.806" stroke="#8B1A1A" stroke-width="10"/>
<path d="M452.494 842.628C452.494 842.628 251.891 237.257 22.4935 240.085C-206.904 242.913 -295.47 555.588 -295.47 555.588" stroke="#8B1A1A" stroke-width="10"/>
<path d="M437.881 853.409C437.881 853.409 237.278 248.039 7.88069 250.867C-221.517 253.695 -310.083 566.37 -310.083 566.37" stroke="#8B1A1A" stroke-width="10"/>
<path d="M423.268 864.191C423.268 864.191 222.665 258.821 -6.73222 261.649C-236.13 264.477 -324.696 577.152 -324.696 577.152" stroke="#8B1A1A" stroke-width="10"/>
<path d="M408.655 874.973C408.655 874.973 208.052 269.603 -21.3451 272.431C-250.743 275.258 -339.309 587.933 -339.309 587.933" stroke="#8B1A1A" stroke-width="10"/>
<path d="M394.042 885.755C394.042 885.755 193.439 280.385 -35.9581 283.213C-265.356 286.041 -353.922 598.716 -353.922 598.716" stroke="#8B1A1A" stroke-width="10"/>
<path d="M379.429 896.537C379.429 896.537 178.827 291.167 -50.571 293.995C-279.969 296.822 -368.535 609.497 -368.535 609.497" stroke="#8B1A1A" stroke-width="10"/>
<path d="M364.816 907.319C364.816 907.319 164.214 301.948 -65.1839 304.776C-294.581 307.604 -383.148 620.279 -383.148 620.279" stroke="#8B1A1A" stroke-width="10"/>
<path d="M350.203 918.1C350.203 918.1 149.601 312.73 -79.7968 315.558C-309.194 318.386 -397.761 631.061 -397.761 631.061" stroke="#8B1A1A" stroke-width="10"/>
<path d="M335.59 928.882C335.59 928.882 134.988 323.512 -94.4097 326.34C-323.807 329.168 -412.374 641.842 -412.374 641.842" stroke="#8B1A1A" stroke-width="10"/>
</g>
<mask id="mask2_829_266" style="mask-type:alpha" maskUnits="userSpaceOnUse" x="295" y="112" width="217" height="411">
<path d="M342.173 341.562C334.806 297.381 295.426 216.542 295.426 216.542C295.426 216.542 313.512 185.717 328.04 168.164C342.568 150.612 360.126 131.087 373.156 124.136C386.185 117.184 395.233 113.001 409.031 112.177C422.829 111.353 431.061 113.381 443.819 118.7C456.577 124.019 471.545 136.901 484.043 153.488C499.343 173.794 503.72 188.853 508.503 213.824C514.423 244.725 510.701 263.497 504.155 294.271C496.922 328.278 486.754 345.901 470.998 376.893C451.066 416.098 439.782 440.573 408.488 471.474C385.555 494.118 372.612 506.805 342.173 519.307C325.286 526.243 295.426 519.307 295.426 519.307C295.426 519.307 325.345 484.168 336.737 455.71C348.129 427.253 349.539 385.742 342.173 341.562Z" fill="#CFCDEE"/>
</mask>
<g mask="url(#mask2_829_266)">
<path d="M-37.3796 708.724C-37.3796 708.724 163.223 103.354 392.62 106.182C622.018 109.01 710.584 421.685 710.584 421.685" stroke="#8B1A1A" stroke-width="10"/>
<path d="M-22.7669 719.506C-22.7669 719.506 177.836 114.136 407.233 116.964C636.631 119.792 725.197 432.466 725.197 432.466" stroke="#8B1A1A" stroke-width="10"/>
<path d="M-8.15406 730.288C-8.15406 730.288 192.448 124.918 421.846 127.745C651.244 130.573 739.81 443.248 739.81 443.248" stroke="#8B1A1A" stroke-width="10"/>
<path d="M6.45884 741.069C6.45884 741.069 207.061 135.699 436.459 138.527C665.856 141.355 754.423 454.03 754.423 454.03" stroke="#8B1A1A" stroke-width="10"/>
<path d="M21.0715 751.851C21.0715 751.851 221.674 146.481 451.072 149.309C680.469 152.137 769.035 464.812 769.035 464.812" stroke="#8B1A1A" stroke-width="10"/>
<path d="M35.6843 762.633C35.6843 762.633 236.287 157.263 465.684 160.091C695.082 162.919 783.648 475.593 783.648 475.593" stroke="#8B1A1A" stroke-width="10"/>
<path d="M50.2971 773.415C50.2971 773.415 250.9 168.045 480.297 170.872C709.695 173.7 798.261 486.375 798.261 486.375" stroke="#8B1A1A" stroke-width="10"/>
<path d="M64.9099 784.196C64.9099 784.196 265.512 178.826 494.91 181.654C724.307 184.482 812.874 497.157 812.874 497.157" stroke="#8B1A1A" stroke-width="10"/>
<path d="M79.5227 794.978C79.5227 794.978 280.125 189.608 509.523 192.436C738.92 195.264 827.487 507.939 827.487 507.939" stroke="#8B1A1A" stroke-width="10"/>
<path d="M94.1356 805.76C94.1356 805.76 294.738 200.39 524.136 203.218C753.533 206.046 842.099 518.72 842.099 518.72" stroke="#8B1A1A" stroke-width="10"/>
<path d="M108.748 816.542C108.748 816.542 309.351 211.172 538.748 213.999C768.146 216.827 856.712 529.502 856.712 529.502" stroke="#8B1A1A" stroke-width="10"/>
<path d="M123.361 827.323C123.361 827.323 323.964 221.953 553.361 224.781C782.759 227.609 871.325 540.284 871.325 540.284" stroke="#8B1A1A" stroke-width="10"/>
<path d="M137.974 838.105C137.974 838.105 338.577 232.735 567.974 235.563C797.372 238.391 885.938 551.066 885.938 551.066" stroke="#8B1A1A" stroke-width="10"/>
<path d="M152.587 848.887C152.587 848.887 353.189 243.517 582.587 246.345C811.984 249.172 900.551 561.847 900.551 561.847" stroke="#8B1A1A" stroke-width="10"/>
<path d="M167.2 859.669C167.2 859.669 367.802 254.298 597.2 257.126C826.597 259.954 915.164 572.629 915.164 572.629" stroke="#8B1A1A" stroke-width="10"/>
<path d="M181.813 870.45C181.813 870.45 382.415 265.08 611.813 267.908C841.21 270.736 929.777 583.411 929.777 583.411" stroke="#8B1A1A" stroke-width="10"/>
<path d="M196.426 881.233C196.426 881.233 397.028 275.862 626.426 278.69C855.823 281.518 944.39 594.193 944.39 594.193" stroke="#8B1A1A" stroke-width="10"/>
<path d="M211.039 892.014C211.039 892.014 411.641 286.644 641.039 289.472C870.436 292.3 959.002 604.975 959.002 604.975" stroke="#8B1A1A" stroke-width="10"/>
<path d="M225.652 902.796C225.652 902.796 426.254 297.426 655.652 300.254C885.049 303.082 973.615 615.757 973.615 615.757" stroke="#8B1A1A" stroke-width="10"/>
<path d="M240.264 913.578C240.264 913.578 440.867 308.208 670.264 311.036C899.662 313.863 988.228 626.538 988.228 626.538" stroke="#8B1A1A" stroke-width="10"/>
<path d="M254.877 924.36C254.877 924.36 455.48 318.989 684.877 321.817C914.275 324.645 1002.84 637.32 1002.84 637.32" stroke="#8B1A1A" stroke-width="10"/>
</g>
<path d="M293.5 528.5C293.5 528.5 258.482 549.828 237 555C215.518 560.172 180.5 558 180.5 558" stroke="#8B1A1A" stroke-width="11" stroke-linecap="round"/>
<path d="M301 528C301 528 337.877 550.786 360.5 556.311C383.123 561.837 420 559.517 420 559.517" stroke="#8B1A1A" stroke-width="11" stroke-linecap="round"/>
</svg>
